RobotoSerifDisplay-RegularWdth150 01m.ufo
<glyph name="K" format="2">
  <advance width="524"/>
  <unicode hex="004B"/>
  <guideline x="241.64" y="423.4" angle="298.2076204851905" identifier="3SnzfhGhik"/>
  <guideline x="403" y="640" angle="56.64564183262232" identifier="yx3QVCEjve"/>
  <outline>
    <contour>
      <point x="311" y="0" type="line"/>
      <point x="514" y="0" type="line"/>
      <point x="514" y="30" type="line"/>
      <point x="501" y="30" type="line" smooth="yes"/>
      <point x="471" y="30"/>
      <point x="461" y="37"/>
      <point x="445" y="65" type="curve" smooth="yes"/>
      <point x="243" y="423" type="line"/>
      <point x="243" y="385" type="line"/>
      <point x="411" y="640" type="line" smooth="yes"/>
      <point x="432" y="672"/>
      <point x="440" y="680"/>
      <point x="476" y="680" type="curve" smooth="yes"/>
      <point x="487" y="680" type="line"/>
      <point x="487" y="710" type="line"/>
      <point x="335" y="710" type="line"/>
      <point x="335" y="680" type="line"/>
      <point x="342" y="680" type="line" smooth="yes"/>
      <point x="359" y="680"/>
      <point x="387" y="675"/>
      <point x="387" y="666" type="curve"/>
      <point x="187" y="362" type="line"/>
      <point x="187" y="352" type="line"/>
      <point x="364" y="40" type="line"/>
      <point x="364" y="33"/>
      <point x="338" y="30"/>
      <point x="320" y="30" type="curve" smooth="yes"/>
      <point x="311" y="30" type="line"/>
    </contour>
    <contour>
      <point x="24" y="0" type="line"/>
      <point x="222" y="0" type="line"/>
      <point x="222" y="30" type="line"/>
      <point x="215" y="30" type="line" smooth="yes"/>
      <point x="193" y="30"/>
      <point x="165" y="33"/>
      <point x="165" y="40" type="curve" smooth="yes"/>
      <point x="165" y="671" type="line" smooth="yes"/>
      <point x="165" y="677"/>
      <point x="193" y="680"/>
      <point x="215" y="680" type="curve" smooth="yes"/>
      <point x="222" y="680" type="line"/>
      <point x="222" y="710" type="line"/>
      <point x="24" y="710" type="line"/>
      <point x="24" y="680" type="line"/>
      <point x="29" y="680" type="line" smooth="yes"/>
      <point x="57" y="680"/>
      <point x="82" y="673"/>
      <point x="82" y="645" type="curve" smooth="yes"/>
      <point x="82" y="65" type="line" smooth="yes"/>
      <point x="82" y="37"/>
      <point x="58" y="30"/>
      <point x="29" y="30" type="curve" smooth="yes"/>
      <point x="24" y="30" type="line"/>
    </contour>
  </outline>
</glyph>
<glyph name="M" format="2">
  <advance width="644"/>
  <unicode hex="004D"/>
  <guideline x="186" y="710.0" angle="283.0954790934151" identifier="6jqVH05E2i"/>
  <guideline x="452" y="710" angle="257.0172211788888" identifier="fP6nWK4g3t"/>
  <anchor x="311" y="0.0" name="bottom"/>
  <outline>
    <contour>
      <point x="24" y="0" type="line"/>
      <point x="177" y="0" type="line"/>
      <point x="177" y="30" type="line"/>
      <point x="167" y="30" type="line" smooth="yes"/>
      <point x="139" y="30"/>
      <point x="118" y="35"/>
      <point x="118" y="62" type="curve" smooth="yes"/>
      <point x="118" y="705" type="line"/>
      <point x="109" y="703" type="line"/>
      <point x="273" y="-2" type="line"/>
      <point x="327" y="-2" type="line"/>
      <point x="490" y="705" type="line"/>
      <point x="480" y="707" type="line"/>
      <point x="480" y="40" type="line" smooth="yes"/>
      <point x="480" y="33"/>
      <point x="451" y="30"/>
      <point x="429" y="30" type="curve" smooth="yes"/>
      <point x="423" y="30" type="line"/>
      <point x="423" y="0" type="line"/>
      <point x="620" y="0" type="line"/>
      <point x="620" y="30" type="line"/>
      <point x="616" y="30" type="line" smooth="yes"/>
      <point x="587" y="30"/>
      <point x="563" y="37"/>
      <point x="563" y="65" type="curve" smooth="yes"/>
      <point x="563" y="645" type="line" smooth="yes"/>
      <point x="563" y="673"/>
      <point x="588" y="680"/>
      <point x="616" y="680" type="curve" smooth="yes"/>
      <point x="620" y="680" type="line"/>
      <point x="620" y="710" type="line"/>
      <point x="458" y="710" type="line"/>
      <point x="311" y="72" type="line"/>
      <point x="337" y="74" type="line"/>
      <point x="189" y="710" type="line"/>
      <point x="24" y="710" type="line"/>
      <point x="24" y="680" type="line"/>
      <point x="33" y="680" type="line" smooth="yes"/>
      <point x="58" y="680"/>
      <point x="82" y="673"/>
      <point x="82" y="645" type="curve" smooth="yes"/>
      <point x="82" y="92" type="line" smooth="yes"/>
      <point x="82" y="47"/>
      <point x="58" y="30"/>
      <point x="33" y="30" type="curve" smooth="yes"/>
      <point x="24" y="30" type="line"/>
    </contour>
  </outline>
</glyph>
<glyph name="bracketleft" format="2">
  <advance width="191"/>
  <unicode hex="005B"/>
  <outline>
    <contour>
      <point x="35" y="750" type="line"/>
      <point x="35" y="-130" type="line"/>
      <point x="91" y="-130" type="line"/>
      <point x="91" y="750" type="line"/>
    </contour>
    <contour>
      <point x="176" y="750" type="line"/>
      <point x="56" y="750" type="line"/>
      <point x="56" y="719" type="line"/>
      <point x="176" y="719" type="line"/>
    </contour>
    <contour>
      <point x="176" y="-99" type="line"/>
      <point x="56" y="-99" type="line"/>
      <point x="56" y="-130" type="line"/>
      <point x="176" y="-130" type="line"/>
    </contour>
  </outline>
</glyph>
<glyph name="underscore" format="2">
  <advance width="336"/>
  <unicode hex="005F"/>
  <outline>
    <contour>
      <point x="-3" y="-93" type="line"/>
      <point x="-3" y="-135" type="line"/>
      <point x="340" y="-135" type="line"/>
      <point x="340" y="-93" type="line"/>
    </contour>
  </outline>
</glyph>
<glyph name="asciitilde" format="2">
  <advance width="365"/>
  <unicode hex="007E"/>
  <outline>
    <contour>
      <point x="233.38" y="268.6" type="curve" smooth="yes"/>
      <point x="284.71999999999997" y="268.6"/>
      <point x="308.9825" y="323.65"/>
      <point x="327.355" y="402.3" type="curve"/>
      <point x="300.565" y="411.5" type="line"/>
      <point x="288.2875" y="366.1"/>
      <point x="276.905" y="342.7"/>
      <point x="252.60999999999999" y="342.7" type="curve" smooth="yes"/>
      <point x="215.06" y="342.7"/>
      <point x="178.64" y="409.35"/>
      <point x="127.15" y="409.35" type="curve" smooth="yes"/>
      <point x="75.9475" y="409.35"/>
      <point x="50.480000000000004" y="358.1"/>
      <point x="37.085" y="275.65" type="curve"/>
      <point x="64.875" y="267.4" type="line"/>
      <point x="72.175" y="312.8"/>
      <point x="84.085" y="336.2"/>
      <point x="106.7025" y="336.2" type="curve" smooth="yes"/>
      <point x="141.575" y="336.2"/>
      <point x="182.8" y="268.6"/>
    </contour>
  </outline>
</glyph>
<glyph name="copyright" format="2">
  <advance width="593"/>
  <unicode hex="00A9"/>
  <outline>
    <contour>
      <point x="300.0925" y="529.7" type="curve" smooth="yes"/>
      <point x="352.905" y="529.7"/>
      <point x="383.37" y="478.65"/>
      <point x="395.4525" y="413.55" type="curve"/>
      <point x="417.4675" y="413.55" type="line"/>
      <point x="417.4675" y="551.9" type="line"/>
      <point x="396.42" y="551.9" type="line"/>
      <point x="387.465" y="465.85" type="line"/>
      <point x="388.11" y="465.25"/>
      <point x="399.87" y="454.35"/>
      <point x="402.4725" y="453.15" type="curve"/>
      <point x="393.549613316851" y="521.8522273649263"/>
      <point x="346.81798076923076" y="562.9"/>
      <point x="292.8675" y="562.9" type="curve" smooth="yes"/>
      <point x="213.8675" y="562.9"/>
      <point x="149.24" y="476.0"/>
      <point x="149.24" y="354.0" type="curve" smooth="yes"/>
      <point x="149.24" y="231.0"/>
      <point x="211.89" y="147.1"/>
      <point x="295.985" y="147.1" type="curve" smooth="yes"/>
      <point x="364.44" y="147.1"/>
      <point x="412.74" y="214.55"/>
      <point x="426.445" y="294.6" type="curve"/>
      <point x="403.02" y="306.55" type="line"/>
      <point x="390.6353568202793" y="236.2910490729311"/>
      <point x="357.8725" y="180.35"/>
      <point x="301.415" y="180.35" type="curve" smooth="yes"/>
      <point x="246.9675" y="180.35"/>
      <point x="213.1925" y="246.41560344827587"/>
      <point x="213.1925" y="354.0" type="curve" smooth="yes"/>
      <point x="213.1925" y="470.34696022727275"/>
      <point x="250.4725" y="529.7"/>
    </contour>
    <contour>
      <point x="62.254999999999995" y="355.0" type="curve" smooth="yes"/>
      <point x="62.254999999999995" y="549.9"/>
      <point x="160.325" y="702.95"/>
      <point x="296.0175" y="702.95" type="curve" smooth="yes"/>
      <point x="431.5825" y="702.95"/>
      <point x="530.6525" y="549.9"/>
      <point x="530.6525" y="355.0" type="curve" smooth="yes"/>
      <point x="530.6525" y="160.1"/>
      <point x="431.5825" y="7.05"/>
      <point x="296.0175" y="7.05" type="curve" smooth="yes"/>
      <point x="160.325" y="7.05"/>
      <point x="62.254999999999995" y="160.1"/>
    </contour>
    <contour>
      <point x="27.11" y="355.0" type="curve" smooth="yes"/>
      <point x="27.11" y="137.7"/>
      <point x="143.1325" y="-28.6"/>
      <point x="296.0175" y="-28.6" type="curve" smooth="yes"/>
      <point x="449.18" y="-28.6"/>
      <point x="565.925" y="137.7"/>
      <point x="565.925" y="355.0" type="curve" smooth="yes"/>
      <point x="565.925" y="572.3"/>
      <point x="449.18" y="738.6"/>
      <point x="296.0175" y="738.6" type="curve" smooth="yes"/>
      <point x="143.1325" y="738.6"/>
      <point x="27.11" y="572.3"/>
    </contour>
  </outline>
</glyph>
<glyph name="eogonek" format="2">
  <advance width="389"/>
  <unicode hex="0119"/>
  <outline>
    <contour>
      <point x="238.7975" y="-236.5" type="curve" smooth="yes"/>
      <point x="278.745" y="-236.5"/>
      <point x="299.3525" y="-216.85"/>
      <point x="317.97" y="-188.8" type="curve"/>
      <point x="303.6725" y="-168.15" type="line"/>
      <point x="292.44" y="-184.75"/>
      <point x="279.5625" y="-199.0"/>
      <point x="261.34" y="-199.0" type="curve" smooth="yes"/>
      <point x="241.35750000000002" y="-199.0"/>
      <point x="228.07999999999998" y="-177.45"/>
      <point x="228.07999999999998" y="-136.2" type="curve" smooth="yes"/>
      <point x="228.07999999999998" y="-87.8"/>
      <point x="252.7625" y="-34.95"/>
      <point x="314.445" y="29.95" type="curve" smooth="yes"/>
      <point x="333.74" y="50.3"/>
      <point x="349.1125" y="74.35"/>
      <point x="360.5075" y="105.9" type="curve"/>
      <point x="336.675" y="130.2" type="line"/>
      <point x="314.1425" y="70.1"/>
      <point x="280.755" y="25.2"/>
      <point x="225.3625" y="25.2" type="curve" smooth="yes"/>
      <point x="152.5975" y="25.2"/>
      <point x="104.5025" y="106.95"/>
      <point x="104.5025" y="254.0" type="curve" smooth="yes"/>
      <point x="104.5025" y="403.2"/>
      <point x="145.22" y="492.65"/>
      <point x="205.5925" y="492.65" type="curve" smooth="yes"/>
      <point x="260.015" y="492.65"/>
      <point x="286.9125" y="421.95"/>
      <point x="288.19" y="289.9" type="curve"/>
      <point x="306.7225" y="302.15" type="line"/>
      <point x="74.465" y="302.15" type="line"/>
      <point x="75.315" y="269.4" type="line"/>
      <point x="364.6475" y="269.4" type="line"/>
      <point x="363.775" y="435.35"/>
      <point x="305.685" y="527.8"/>
      <point x="204.9475" y="527.8" type="curve" smooth="yes"/>
      <point x="103.35" y="527.8"/>
      <point x="25.3375" y="418.0"/>
      <point x="25.3375" y="255.9" type="curve" smooth="yes"/>
      <point x="25.3375" y="92.7"/>
      <point x="109.16499999999999" y="-10.2"/>
      <point x="216.1475" y="-10.2" type="curve" smooth="yes"/>
      <point x="253.1925" y="-10.2"/>
      <point x="280.2375" y="8.349999999999998"/>
      <point x="306.90999999999997" y="33.949999999999996" type="curve"/>
      <point x="302.70500000000004" y="39.05" type="line"/>
      <point x="224.015" y="-21.4"/>
      <point x="159.055" y="-75.8"/>
      <point x="159.055" y="-144.6" type="curve" smooth="yes"/>
      <point x="159.055" y="-202.35"/>
      <point x="191.895" y="-236.5"/>
    </contour>
  </outline>
</glyph>
<glyph name="dotlessi" format="2">
  <advance width="216"/>
  <unicode hex="0131"/>
  <anchor x="119.3" y="530.95" name="top"/>
  <outline>
    <contour>
      <point x="151.3925" y="517.8" type="line"/>
      <point x="21.015" y="517.8" type="line"/>
      <point x="21.015" y="485.3" type="line"/>
      <point x="28.9925" y="483.3" type="line" smooth="yes"/>
      <point x="57.917500000000004" y="475.4"/>
      <point x="72.2275" y="467.6"/>
      <point x="72.2275" y="439.25" type="curve" smooth="yes"/>
      <point x="72.2275" y="67.8" type="line" smooth="yes"/>
      <point x="72.2275" y="39.25"/>
      <point x="50.64" y="32.3"/>
      <point x="22.865000000000002" y="32.3" type="curve" smooth="yes"/>
      <point x="21.015" y="32.3" type="line"/>
      <point x="21.015" y="0.0" type="line"/>
      <point x="201.0325" y="0.0" type="line"/>
      <point x="201.0325" y="32.3" type="line"/>
      <point x="199.905" y="32.3" type="line" smooth="yes"/>
      <point x="171.535" y="32.3"/>
      <point x="151.3925" y="39.25"/>
      <point x="151.3925" y="67.8" type="curve" smooth="yes"/>
    </contour>
  </outline>
</glyph>
<glyph name="Eng" format="2">
  <advance width="525"/>
  <unicode hex="014A"/>
  <outline>
    <contour>
      <point x="24" y="0" type="line"/>
      <point x="183" y="0" type="line"/>
      <point x="183" y="30" type="line"/>
      <point x="166" y="30" type="line" smooth="yes"/>
      <point x="137" y="30"/>
      <point x="116" y="36"/>
      <point x="116" y="63" type="curve" smooth="yes"/>
      <point x="116" y="661" type="line"/>
      <point x="421" y="-62" type="line"/>
      <point x="410" y="32" type="line"/>
      <point x="410.0" y="-53" type="line" smooth="yes"/>
      <point x="410" y="-149"/>
      <point x="368" y="-180"/>
      <point x="309" y="-180" type="curve" smooth="yes"/>
      <point x="277" y="-180"/>
      <point x="253" y="-171"/>
      <point x="235" y="-160" type="curve"/>
      <point x="235" y="-196" type="line"/>
      <point x="249" y="-205"/>
      <point x="278" y="-212"/>
      <point x="310" y="-212.0" type="curve" smooth="yes"/>
      <point x="383" y="-212"/>
      <point x="444.0" y="-175.0"/>
      <point x="444" y="-53" type="curve" smooth="yes"/>
      <point x="444" y="618" type="line" smooth="yes"/>
      <point x="444" y="663"/>
      <point x="469" y="680"/>
      <point x="494" y="680" type="curve" smooth="yes"/>
      <point x="501" y="680" type="line"/>
      <point x="501" y="710" type="line"/>
      <point x="344" y="710" type="line"/>
      <point x="344" y="680" type="line"/>
      <point x="361" y="680" type="line" smooth="yes"/>
      <point x="389" y="680"/>
      <point x="410" y="674"/>
      <point x="410" y="648" type="curve" smooth="yes"/>
      <point x="410" y="174" type="line"/>
      <point x="181" y="710" type="line"/>
      <point x="24" y="710" type="line"/>
      <point x="24" y="680" type="line"/>
      <point x="33" y="680" type="line" smooth="yes"/>
      <point x="56" y="680"/>
      <point x="82" y="673"/>
      <point x="82" y="645" type="curve" smooth="yes"/>
      <point x="82" y="92" type="line" smooth="yes"/>
      <point x="82" y="47"/>
      <point x="58" y="30"/>
      <point x="33" y="30" type="curve" smooth="yes"/>
      <point x="24" y="30" type="line"/>
    </contour>
  </outline>
</glyph>
<glyph name="Tbar" format="2">
  <advance width="455"/>
  <unicode hex="0166"/>
  <outline>
    <contour>
      <point x="81.665" y="369.1" type="line"/>
      <point x="81.665" y="333.7" type="line"/>
      <point x="372.2475" y="333.7" type="line"/>
      <point x="372.2475" y="369.1" type="line"/>
    </contour>
    <component base="T" xOffset="-81.3875"/>
  </outline>
</glyph>
<glyph name="Uogonek" format="2">
  <advance width="529"/>
  <unicode hex="0172"/>
  <outline>
    <contour>
      <point x="322.655" y="-236.5" type="curve" smooth="yes"/>
      <point x="362.60249999999996" y="-236.5"/>
      <point x="383.21" y="-216.85"/>
      <point x="402.55" y="-188.8" type="curve"/>
      <point x="387.40250000000003" y="-168.15" type="line"/>
      <point x="376.2975" y="-184.75"/>
      <point x="362.57" y="-199.0"/>
      <point x="344.22" y="-199.0" type="curve" smooth="yes"/>
      <point x="325.21500000000003" y="-199.0"/>
      <point x="312.66" y="-181.25"/>
      <point x="312.66" y="-136.2" type="curve" smooth="yes"/>
      <point x="312.66" y="-88.68758241757725"/>
      <point x="328.12185190539503" y="-35.260138025303505"/>
      <point x="393.7975" y="43.8" type="curve" smooth="yes"/>
      <point x="429.7527566921425" y="85.35522348613"/>
      <point x="450.9975" y="154.33363970581252"/>
      <point x="450.9975" y="249.6" type="curve" smooth="yes"/>
      <point x="450.9975" y="616.7" type="line" smooth="yes"/>
      <point x="450.9975" y="661.85"/>
      <point x="474.8625" y="677.4"/>
      <point x="500.3725" y="677.4" type="curve" smooth="yes"/>
      <point x="507.95" y="677.4" type="line"/>
      <point x="507.95" y="710.0" type="line"/>
      <point x="350.40250000000003" y="710.0" type="line"/>
      <point x="350.40250000000003" y="677.4" type="line"/>
      <point x="365.1175" y="677.4" type="line" smooth="yes"/>
      <point x="398.5475" y="677.4"/>
      <point x="415.62" y="670.45"/>
      <point x="415.62" y="652.65" type="curve" smooth="yes"/>
      <point x="415.62" y="249.6" type="line" smooth="yes"/>
      <point x="415.62" y="106.55"/>
      <point x="368.75" y="43.1"/>
      <point x="290.86" y="43.1" type="curve" smooth="yes"/>
      <point x="210.43" y="43.1"/>
      <point x="160.91750000000002" y="99.65"/>
      <point x="160.91750000000002" y="242.95" type="curve" smooth="yes"/>
      <point x="160.91750000000002" y="667.4" type="line" smooth="yes"/>
      <point x="160.91750000000002" y="674.4"/>
      <point x="189.21" y="677.4"/>
      <point x="211.39749999999998" y="677.4" type="curve" smooth="yes"/>
      <point x="217.8475" y="677.4" type="line"/>
      <point x="217.8475" y="710.0" type="line"/>
      <point x="21.36" y="710.0" type="line"/>
      <point x="21.36" y="677.4" type="line"/>
      <point x="26.1325" y="677.4" type="line" smooth="yes"/>
      <point x="53.5975" y="677.4"/>
      <point x="78.3125" y="670.4"/>
      <point x="78.3125" y="641.4" type="curve" smooth="yes"/>
      <point x="78.3125" y="242.0" type="line" smooth="yes"/>
      <point x="78.3125" y="71.3"/>
      <point x="154.4525" y="-10.0"/>
      <point x="271.1" y="-10.0" type="curve" smooth="yes"/>
      <point x="316.075" y="-10.0"/>
      <point x="356.1175" y="15.95"/>
      <point x="385.4225" y="51.699999999999996" type="curve"/>
      <point x="383.4775" y="53.949999999999996" type="line"/>
      <point x="294.97459608507" y="-19.21718251603575"/>
      <point x="242.9125" y="-74.7"/>
      <point x="242.9125" y="-144.7" type="curve" smooth="yes"/>
      <point x="242.9125" y="-202.35"/>
      <point x="275.7525" y="-236.5"/>
    </contour>
  </outline>
</glyph>
<glyph name="Schwa" format="2">
  <advance width="501"/>
  <unicode hex="018F"/>
  <outline>
    <contour>
      <point x="242.4525" y="720.0" type="curve" smooth="yes"/>
      <point x="141.855" y="720.0"/>
      <point x="76.41" y="647.5"/>
      <point x="37.71" y="555.85" type="curve"/>
      <point x="67.67" y="529.3" type="line"/>
      <point x="98.1475" y="605.85"/>
      <point x="148.7125" y="680.8"/>
      <point x="234.26" y="680.8" type="curve" smooth="yes"/>
      <point x="333.685" y="680.8"/>
      <point x="386.3025" y="564.2"/>
      <point x="386.3025" y="356.05" type="curve" smooth="yes"/>
      <point x="386.3025" y="153.95"/>
      <point x="326.0425" y="29.2"/>
      <point x="248.3875" y="29.2" type="curve" smooth="yes"/>
      <point x="161.5725" y="29.2"/>
      <point x="121.48749999999998" y="127.25"/>
      <point x="119.3375" y="338.85" type="curve"/>
      <point x="99.51499999999999" y="328.05" type="line"/>
      <point x="433.895" y="328.05" type="line"/>
      <point x="432.745" y="366.9" type="line"/>
      <point x="31.4425" y="366.9" type="line"/>
      <point x="32.4425" y="114.65"/>
      <point x="107.7775" y="-10.0"/>
      <point x="248.3875" y="-10.0" type="curve" smooth="yes"/>
      <point x="374.74" y="-10.0"/>
      <point x="473.425" y="140.9"/>
      <point x="473.425" y="357.95" type="curve" smooth="yes"/>
      <point x="473.425" y="580.0"/>
      <point x="380.685" y="720.0"/>
    </contour>
  </outline>
</glyph>
<glyph name="Ohorn" format="2">
  <advance width="558"/>
  <unicode hex="01A0"/>
  <anchor x="277.85" y="742.0" name="top"/>
  <outline>
    <contour>
      <point x="338.61" y="697.85" type="curve"/>
      <point x="481.45474229875254" y="689.41878331545"/>
      <point x="548.295" y="737.75"/>
      <point x="549.2725" y="877.0" type="curve"/>
      <point x="484.1475" y="877.0" type="line"/>
      <point x="481.8925" y="759.5"/>
      <point x="439.42" y="720.0"/>
      <point x="275.045" y="720.0" type="curve"/>
      <point x="280.72249999999997" y="719.4"/>
      <point x="334.5675" y="698.6"/>
    </contour>
    <contour>
      <point x="276.3125" y="-10.0" type="curve" smooth="yes"/>
      <point x="415.61" y="-10.0"/>
      <point x="525.56" y="138.7"/>
      <point x="525.56" y="355.0" type="curve" smooth="yes"/>
      <point x="525.56" y="539.35"/>
      <point x="447.99" y="664.05"/>
      <point x="341.3625" y="701.95" type="curve"/>
      <point x="321.0225" y="712.0"/>
      <point x="299.41499999999996" y="720.0"/>
      <point x="276.3125" y="720.0" type="curve" smooth="yes"/>
      <point x="136.8875" y="720.0"/>
      <point x="27.7875" y="572.2"/>
      <point x="27.7875" y="355.0" type="curve" smooth="yes"/>
      <point x="27.7875" y="138.7"/>
      <point x="136.8875" y="-10.0"/>
    </contour>
    <contour>
      <point x="276.3125" y="29.2" type="curve" smooth="yes"/>
      <point x="183.4925" y="29.2"/>
      <point x="116.01499999999999" y="154.3"/>
      <point x="116.01499999999999" y="355.0" type="curve" smooth="yes"/>
      <point x="116.01499999999999" y="555.7"/>
      <point x="183.4925" y="680.8"/>
      <point x="276.3125" y="680.8" type="curve" smooth="yes"/>
      <point x="370.705" y="680.8"/>
      <point x="437.3325" y="555.7"/>
      <point x="437.3325" y="355.0" type="curve" smooth="yes"/>
      <point x="437.3325" y="154.3"/>
      <point x="370.705" y="29.2"/>
    </contour>
  </outline>
</glyph>
<glyph name="Uhorn" format="2">
  <advance width="548"/>
  <unicode hex="01AF"/>
  <anchor x="292.9" y="663.0" name="top"/>
  <outline>
    <contour>
      <point x="489.2225" y="685.3" type="curve" smooth="yes"/>
      <point x="546.2525" y="706.1"/>
      <point x="578.5775" y="762.75"/>
      <point x="578.5775" y="877.0" type="curve"/>
      <point x="522.4625" y="877.0" type="line"/>
      <point x="522.14" y="741.9735479041225"/>
      <point x="503.8525" y="711.9"/>
      <point x="427.895" y="710.95" type="curve" smooth="yes"/>
      <point x="350.40250000000003" y="710.0" type="line"/>
      <point x="350.40250000000003" y="677.4" type="line"/>
      <point x="365.1175" y="677.4" type="line" smooth="yes"/>
      <point x="398.5475" y="677.4"/>
      <point x="415.62" y="670.45"/>
      <point x="415.62" y="652.65" type="curve" smooth="yes"/>
      <point x="415.62" y="249.6" type="line" smooth="yes"/>
      <point x="415.62" y="106.55"/>
      <point x="368.75" y="43.1"/>
      <point x="290.86" y="43.1" type="curve" smooth="yes"/>
      <point x="210.43" y="43.1"/>
      <point x="160.91750000000002" y="99.65"/>
      <point x="160.91750000000002" y="242.95" type="curve" smooth="yes"/>
      <point x="160.91750000000002" y="667.4" type="line" smooth="yes"/>
      <point x="160.91750000000002" y="674.4"/>
      <point x="189.21" y="677.4"/>
      <point x="211.39749999999998" y="677.4" type="curve" smooth="yes"/>
      <point x="217.8475" y="677.4" type="line"/>
      <point x="217.8475" y="710.0" type="line"/>
      <point x="21.36" y="710.0" type="line"/>
      <point x="21.36" y="677.4" type="line"/>
      <point x="26.1325" y="677.4" type="line" smooth="yes"/>
      <point x="53.5975" y="677.4"/>
      <point x="78.3125" y="670.4"/>
      <point x="78.3125" y="641.4" type="curve" smooth="yes"/>
      <point x="78.3125" y="242.0" type="line" smooth="yes"/>
      <point x="78.3125" y="71.3"/>
      <point x="154.4525" y="-10.0"/>
      <point x="271.1" y="-10.0" type="curve" smooth="yes"/>
      <point x="374.6625" y="-10.0"/>
      <point x="450.9975" y="69.25"/>
      <point x="450.9975" y="249.6" type="curve" smooth="yes"/>
      <point x="450.9975" y="621.65" type="line" smooth="yes"/>
      <point x="450.9975" y="665.6197916666825"/>
      <point x="462.8025" y="674.65"/>
    </contour>
  </outline>
</glyph>
<glyph name="dotlessj" format="2">
  <advance width="207"/>
  <unicode hex="0237"/>
  <anchor x="107.585" y="522.4" name="top"/>
  <outline>
    <contour>
      <point x="70.205" y="-46.8" type="line" smooth="yes"/>
      <point x="70.205" y="-160.45"/>
      <point x="46.8675" y="-203.7"/>
      <point x="10.8575" y="-203.7" type="curve" smooth="yes"/>
      <point x="-3.2049999999999983" y="-203.7"/>
      <point x="-16.877500000000005" y="-197.45"/>
      <point x="-21.6625" y="-196.1" type="curve"/>
      <point x="-21.6625" y="-234.25" type="line"/>
      <point x="-10.785" y="-237.45"/>
      <point x="2.6850000000000023" y="-238.85"/>
      <point x="16.04" y="-238.85" type="curve" smooth="yes"/>
      <point x="82.905" y="-238.85"/>
      <point x="149.2425" y="-195.6"/>
      <point x="149.2425" y="-45.2" type="curve" smooth="yes"/>
      <point x="149.2425" y="517.8" type="line"/>
      <point x="15.07" y="517.8" type="line"/>
      <point x="15.07" y="485.3" type="line"/>
      <point x="22.1975" y="483.3" type="line" smooth="yes"/>
      <point x="53.8" y="474.45"/>
      <point x="70.205" y="467.6"/>
      <point x="70.205" y="439.25" type="curve" smooth="yes"/>
    </contour>
  </outline>
</glyph>
<glyph name="verticallinelowmod" format="2">
  <advance width="350"/>
  <unicode hex="02CC"/>
  <outline>
    <contour>
      <point x="158.915" y="-250.0" type="line"/>
      <point x="192.2075" y="-250.0" type="line"/>
      <point x="192.2075" y="-47.0" type="line"/>
      <point x="158.915" y="-47.0" type="line"/>
    </contour>
  </outline>
</glyph>
<glyph name="dotaccent" format="2">
  <advance width="351"/>
  <unicode hex="02D9"/>
  <anchor x="175.2" y="526.0" name="_top"/>
  <outline>
    <contour>
      <point x="175.0275" y="637.7" type="curve" smooth="yes"/>
      <point x="204.515" y="637.7"/>
      <point x="224.8225" y="661.35"/>
      <point x="224.8225" y="700.5" type="curve" smooth="yes"/>
      <point x="224.8225" y="738.7"/>
      <point x="204.515" y="762.35"/>
      <point x="175.0275" y="762.35" type="curve" smooth="yes"/>
      <point x="146.4125" y="762.35"/>
      <point x="126.0825" y="738.7"/>
      <point x="126.0825" y="700.5" type="curve" smooth="yes"/>
      <point x="126.0825" y="661.3"/>
      <point x="146.4125" y="637.7"/>
    </contour>
  </outline>
</glyph>
<glyph name="daggerdbl" format="2">
  <advance width="321"/>
  <unicode hex="2021"/>
  <outline>
    <contour>
      <point x="150" y="513" type="line"/>
      <point x="171" y="513" type="line"/>
      <point x="285" y="461" type="line"/>
      <point x="301" y="461" type="line"/>
      <point x="301" y="564" type="line"/>
      <point x="285" y="564" type="line"/>
      <point x="171" y="528" type="line"/>
      <point x="150" y="528" type="line"/>
      <point x="36" y="564" type="line"/>
      <point x="20" y="564" type="line"/>
      <point x="20" y="461" type="line"/>
      <point x="36" y="461" type="line"/>
    </contour>
    <contour>
      <point x="208" y="375" type="line"/>
      <point x="188" y="411"/>
      <point x="174" y="449"/>
      <point x="174" y="519" type="curve" smooth="yes"/>
      <point x="174" y="591"/>
      <point x="206" y="649"/>
      <point x="206" y="684" type="curve" smooth="yes"/>
      <point x="206" y="710" type="line"/>
      <point x="115" y="710" type="line"/>
      <point x="115" y="684" type="line" smooth="yes"/>
      <point x="115" y="649"/>
      <point x="147" y="591"/>
      <point x="147" y="519" type="curve" smooth="yes"/>
      <point x="147" y="449"/>
      <point x="133" y="411"/>
      <point x="113" y="375" type="curve"/>
      <point x="113" y="335" type="line"/>
      <point x="133" y="299"/>
      <point x="147" y="261"/>
      <point x="147" y="191" type="curve" smooth="yes"/>
      <point x="147" y="119"/>
      <point x="115" y="61"/>
      <point x="115" y="26" type="curve" smooth="yes"/>
      <point x="115" y="0" type="line"/>
      <point x="206" y="0" type="line"/>
      <point x="206" y="26" type="line" smooth="yes"/>
      <point x="206" y="61"/>
      <point x="174" y="119"/>
      <point x="174" y="191" type="curve" smooth="yes"/>
      <point x="174" y="261"/>
      <point x="188" y="299"/>
      <point x="208" y="335" type="curve"/>
    </contour>
    <contour>
      <point x="150" y="197" type="line"/>
      <point x="36" y="249" type="line"/>
      <point x="20" y="249" type="line"/>
      <point x="20" y="146" type="line"/>
      <point x="36" y="146" type="line"/>
      <point x="150" y="182" type="line"/>
      <point x="171" y="182" type="line"/>
      <point x="285" y="146" type="line"/>
      <point x="301" y="146" type="line"/>
      <point x="301" y="249" type="line"/>
      <point x="285" y="249" type="line"/>
      <point x="171" y="197" type="line"/>
    </contour>
  </outline>
</glyph>
<glyph name="lira" format="2">
  <advance width="393"/>
  <unicode hex="20A4"/>
  <outline>
    <contour>
      <point x="17.21" y="424.0" type="line"/>
      <point x="17.21" y="389.45" type="line"/>
      <point x="289.365" y="389.45" type="line"/>
      <point x="289.365" y="424.0" type="line"/>
    </contour>
    <contour>
      <point x="17.21" y="291.15" type="line"/>
      <point x="17.21" y="256.6" type="line"/>
      <point x="289.365" y="256.6" type="line"/>
      <point x="289.365" y="291.15" type="line"/>
    </contour>
    <contour>
      <point x="17.21" y="-12.85" type="line"/>
      <point x="129.04250000000002" y="17.9"/>
      <point x="181.535" y="109.85"/>
      <point x="181.535" y="230.8" type="curve" smooth="yes"/>
      <point x="181.535" y="357.6"/>
      <point x="138.9875" y="423.6"/>
      <point x="138.9875" y="540.45" type="curve" smooth="yes"/>
      <point x="138.9875" y="636.9"/>
      <point x="175.4793525179425" y="684.8"/>
      <point x="228.89499999999998" y="684.8" type="curve" smooth="yes"/>
      <point x="269.56826171875" y="684.8"/>
      <point x="295.0976551008075" y="658.7434378721525"/>
      <point x="311.72" y="630.4" type="curve"/>
      <point x="314.345" y="650.6"/>
      <point x="305.67" y="675.6"/>
      <point x="284.71750000000003" y="677.5" type="curve"/>
      <point x="284.71750000000003" y="568.5" type="line"/>
      <point x="354.7025" y="568.5" type="line"/>
      <point x="354.7025" y="661.1" type="line"/>
      <point x="334.6185135952825" y="685.9839150047025"/>
      <point x="289.9394034091025" y="718.1"/>
      <point x="225.305" y="718.1" type="curve" smooth="yes"/>
      <point x="125.7174245689875" y="718.1"/>
      <point x="58.4475" y="638.75"/>
      <point x="58.4475" y="524.5" type="curve" smooth="yes"/>
      <point x="58.4475" y="401.6"/>
      <point x="122.5025" y="341.8"/>
      <point x="122.5025" y="208.35" type="curve" smooth="yes"/>
      <point x="122.5025" y="109.35"/>
      <point x="98.9175" y="59.95"/>
      <point x="17.21" y="26.65" type="curve"/>
    </contour>
    <contour>
      <point x="270.7775" y="-10.0" type="curve" smooth="yes"/>
      <point x="331.5675" y="-10.0"/>
      <point x="366.7625" y="75.2"/>
      <point x="379.63" y="177.4" type="curve"/>
      <point x="353.485" y="188.7" type="line"/>
      <point x="339.9075" y="107.05"/>
      <point x="315.72" y="82.4"/>
      <point x="274.2275" y="82.4" type="curve" smooth="yes"/>
      <point x="232.7225" y="82.4"/>
      <point x="200.2575" y="104.6"/>
      <point x="151.325" y="165.25" type="curve"/>
      <point x="146.6925" y="160.5"/>
      <point x="133.975" y="146.95"/>
      <point x="133.125" y="139.35" type="curve"/>
      <point x="201.9025" y="55.0"/>
      <point x="215.8775" y="-10.0"/>
    </contour>
  </outline>
</glyph>
<glyph name="cedi" format="2">
  <advance width="393"/>
  <unicode hex="20B5"/>
  <outline>
    <contour>
      <point x="227.435" y="701.0" type="curve" smooth="yes"/>
      <point x="96.3075" y="701.0"/>
      <point x="14.2325" y="569.3"/>
      <point x="14.2325" y="355.0" type="curve" smooth="yes"/>
      <point x="14.2325" y="139.85"/>
      <point x="97.26320031299127" y="9.0"/>
      <point x="216.9525" y="9.0" type="curve" smooth="yes"/>
      <point x="307.0753804347875" y="9.0"/>
      <point x="358.302782364785" y="91.75048803788874"/>
      <point x="380.33" y="228.9" type="curve"/>
      <point x="353.28000000000003" y="243.9" type="line"/>
      <point x="333.74790813452" y="117.2006938286975"/>
      <point x="293.7275" y="44.4"/>
      <point x="223.21" y="44.4" type="curve" smooth="yes"/>
      <point x="141.6696875" y="44.4"/>
      <point x="94.66499999999999" y="156.0"/>
      <point x="94.66499999999999" y="355.0" type="curve" smooth="yes"/>
      <point x="94.66499999999999" y="556.4"/>
      <point x="135.0725" y="668.0"/>
      <point x="229.22" y="668.0" type="curve" smooth="yes"/>
      <point x="286.47249999999997" y="668.0"/>
      <point x="316.5375" y="628.1"/>
      <point x="332.46" y="593.25" type="curve"/>
      <point x="339.49" y="611.65"/>
      <point x="323.9775" y="653.0"/>
      <point x="300.155" y="656.45" type="curve"/>
      <point x="300.155" y="533.1" type="line"/>
      <point x="370.0425" y="533.1" type="line"/>
      <point x="370.0425" y="637.7" type="line"/>
      <point x="353.165" y="658.35"/>
      <point x="301.415" y="701.0"/>
    </contour>
    <contour>
      <point x="198.355" y="790.0" type="line"/>
      <point x="198.355" y="685.25" type="line"/>
      <point x="199.99" y="676.25" type="line"/>
      <point x="199.99" y="37.55" type="line"/>
      <point x="198.355" y="23.55" type="line"/>
      <point x="198.355" y="-120.0" type="line"/>
      <point x="231.09" y="-120.0" type="line"/>
      <point x="231.09" y="22.55" type="line"/>
      <point x="229.455" y="30.95" type="line"/>
      <point x="229.455" y="679.35" type="line"/>
      <point x="231.09" y="687.55" type="line"/>
      <point x="231.09" y="790.0" type="line"/>
    </contour>
  </outline>
</glyph>
<glyph name="trademark" format="2">
  <advance width="599"/>
  <unicode hex="2122"/>
  <outline>
    <contour>
      <point x="38.43" y="710.0" type="line"/>
      <point x="38.43" y="618.1" type="line"/>
      <point x="55.995" y="618.1" type="line"/>
      <point x="59.9725" y="666.55" type="line" smooth="yes"/>
      <point x="61.695" y="682.65"/>
      <point x="71.55" y="687.7"/>
      <point x="97.1775" y="687.7" type="curve" smooth="yes"/>
      <point x="117.6025" y="687.7" type="line"/>
      <point x="117.6025" y="431.1" type="line" smooth="yes"/>
      <point x="117.6025" y="418.1"/>
      <point x="107.6475" y="414.15"/>
      <point x="94.565" y="414.15" type="curve" smooth="yes"/>
      <point x="88.16" y="414.15" type="line"/>
      <point x="88.16" y="393.7" type="line"/>
      <point x="195.8525" y="393.7" type="line"/>
      <point x="195.8525" y="414.15" type="line"/>
      <point x="188.8525" y="414.15" type="line" smooth="yes"/>
      <point x="175.77" y="414.15"/>
      <point x="166.41" y="418.1"/>
      <point x="166.41" y="431.1" type="curve" smooth="yes"/>
      <point x="166.41" y="687.7" type="line"/>
      <point x="186.1125" y="687.7" type="line" smooth="yes"/>
      <point x="211.8675" y="687.7"/>
      <point x="222.3175" y="682.65"/>
      <point x="223.445" y="666.55" type="curve" smooth="yes"/>
      <point x="227.445" y="618.1" type="line"/>
      <point x="244.86" y="618.1" type="line"/>
      <point x="244.86" y="710.0" type="line"/>
    </contour>
    <contour>
      <point x="270.67" y="393.7" type="line"/>
      <point x="340.7375" y="393.7" type="line"/>
      <point x="340.7375" y="414.15" type="line"/>
      <point x="339.4375" y="414.15" type="line" smooth="yes"/>
      <point x="332.8375" y="414.15"/>
      <point x="319.755" y="417.05"/>
      <point x="319.755" y="419.1" type="curve" smooth="yes"/>
      <point x="319.755" y="701.95" type="line"/>
      <point x="314.96" y="700.95" type="line"/>
      <point x="381.2425" y="392.7" type="line"/>
      <point x="420.03" y="392.7" type="line"/>
      <point x="488.485" y="700.9" type="line"/>
      <point x="482.84" y="700.95" type="line"/>
      <point x="482.84" y="419.1" type="line" smooth="yes"/>
      <point x="482.84" y="417.05"/>
      <point x="471.6075" y="414.15"/>
      <point x="464.1575" y="414.15" type="curve" smooth="yes"/>
      <point x="461.8575" y="414.15" type="line"/>
      <point x="461.8575" y="393.7" type="line"/>
      <point x="559.94" y="393.7" type="line"/>
      <point x="559.94" y="414.15" type="line"/>
      <point x="554.9625" y="414.15" type="line" smooth="yes"/>
      <point x="541.8575" y="414.15"/>
      <point x="532.625" y="418.1"/>
      <point x="532.625" y="431.1" type="curve" smooth="yes"/>
      <point x="532.625" y="673.55" type="line" smooth="yes"/>
      <point x="532.625" y="687.55"/>
      <point x="541.8575" y="689.6"/>
      <point x="554.9625" y="689.6" type="curve" smooth="yes"/>
      <point x="559.94" y="689.6" type="line"/>
      <point x="559.94" y="710.0" type="line"/>
      <point x="466.6925" y="710.0" type="line"/>
      <point x="405.71" y="433.85" type="line"/>
      <point x="415.87" y="436.5" type="line"/>
      <point x="363.21750000000003" y="710.0" type="line"/>
      <point x="270.67" y="710.0" type="line"/>
      <point x="270.67" y="689.6" type="line"/>
      <point x="274.82" y="689.6" type="line" smooth="yes"/>
      <point x="287.0525" y="689.6"/>
      <point x="297.8575" y="687.55"/>
      <point x="297.8575" y="673.55" type="curve" smooth="yes"/>
      <point x="297.8575" y="431.1" type="line" smooth="yes"/>
      <point x="297.8575" y="418.1"/>
      <point x="287.0525" y="414.15"/>
      <point x="274.82" y="414.15" type="curve"/>
      <point x="270.67" y="414.15" type="line"/>
    </contour>
  </outline>
</glyph>
<glyph name="product" format="2">
  <advance width="506"/>
  <unicode hex="220F"/>
  <outline>
    <contour>
      <point x="23.4875" y="710.0" type="line"/>
      <point x="23.4875" y="677.4" type="line"/>
      <point x="28.26" y="677.4" type="line" smooth="yes"/>
      <point x="56.447500000000005" y="677.4"/>
      <point x="80.5675" y="670.4"/>
      <point x="80.5675" y="641.4" type="curve" smooth="yes"/>
      <point x="80.5675" y="-154.4" type="line" smooth="yes"/>
      <point x="80.5675" y="-183.4"/>
      <point x="56.575" y="-190.4"/>
      <point x="28.26" y="-190.4" type="curve" smooth="yes"/>
      <point x="23.4875" y="-190.4" type="line"/>
      <point x="23.4875" y="-223.0" type="line"/>
      <point x="217.10500000000002" y="-223.0" type="line"/>
      <point x="217.10500000000002" y="-190.4" type="line"/>
      <point x="210.805" y="-190.4" type="line" smooth="yes"/>
      <point x="188.9625" y="-190.4"/>
      <point x="161.165" y="-187.4"/>
      <point x="161.165" y="-180.4" type="curve" smooth="yes"/>
      <point x="161.165" y="667.4" type="line" smooth="yes"/>
      <point x="161.165" y="674.4"/>
      <point x="189.45749999999998" y="677.4"/>
      <point x="211.79500000000002" y="677.4" type="curve" smooth="yes"/>
      <point x="294.395" y="677.4" type="line" smooth="yes"/>
      <point x="316.7325" y="677.4"/>
      <point x="345.025" y="674.4"/>
      <point x="345.025" y="667.4" type="curve" smooth="yes"/>
      <point x="345.025" y="-180.4" type="line" smooth="yes"/>
      <point x="345.025" y="-187.4"/>
      <point x="317.2275" y="-190.4"/>
      <point x="295.385" y="-190.4" type="curve" smooth="yes"/>
      <point x="289.085" y="-190.4" type="line"/>
      <point x="289.085" y="-223.0" type="line"/>
      <point x="481.98" y="-223.0" type="line"/>
      <point x="481.98" y="-190.4" type="line"/>
      <point x="477.2075" y="-190.4" type="line" smooth="yes"/>
      <point x="448.8925" y="-190.4"/>
      <point x="424.9" y="-183.4"/>
      <point x="424.9" y="-154.4" type="curve" smooth="yes"/>
      <point x="424.9" y="641.4" type="line" smooth="yes"/>
      <point x="424.9" y="670.4"/>
      <point x="449.7425" y="677.4"/>
      <point x="477.2075" y="677.4" type="curve" smooth="yes"/>
      <point x="481.98" y="677.4" type="line"/>
      <point x="481.98" y="710.0" type="line"/>
    </contour>
  </outline>
</glyph>
<glyph name="summation" format="2">
  <advance width="415"/>
  <unicode hex="2211"/>
  <outline>
    <contour>
      <point x="64.73499999999999" y="633.5" type="line"/>
      <point x="76.5625" y="686.95" type="line"/>
      <point x="253.9875" y="279.9" type="line"/>
      <point x="253.9875" y="252.9" type="line"/>
      <point x="38.635" y="-174.9" type="line"/>
      <point x="43.1825" y="-146.5" type="line"/>
      <point x="260.445" y="-146.5" type="line" smooth="yes"/>
      <point x="327.01" y="-146.5"/>
      <point x="343.005" y="-139.5"/>
      <point x="347.1325" y="-103.5" type="curve" smooth="yes"/>
      <point x="359.365" y="6.0" type="line"/>
      <point x="388.3375" y="6.0" type="line"/>
      <point x="388.3375" y="-223.0" type="line"/>
      <point x="20.3825" y="-223.0" type="line"/>
      <point x="20.3825" y="-142.4" type="line"/>
      <point x="228.735" y="271.4" type="line"/>
      <point x="207.18" y="208.8" type="line"/>
      <point x="20.3825" y="629.15" type="line"/>
      <point x="20.3825" y="710.0" type="line"/>
      <point x="372.3325" y="710.0" type="line"/>
      <point x="372.3325" y="496.5" type="line"/>
      <point x="343.66" y="496.5" type="line"/>
      <point x="331.2225" y="590.5" type="line" smooth="yes"/>
      <point x="327.14" y="625.55"/>
      <point x="311.455" y="633.5"/>
      <point x="251.2975" y="633.5" type="curve" smooth="yes"/>
    </contour>
  </outline>
</glyph>
<glyph name="uni27F7" format="2">
  <advance width="400"/>
  <unicode hex="27F7"/>
  <outline>
    <contour>
      <point x="486" y="335" type="line"/>
      <point x="402" y="192" type="line"/>
      <point x="410" y="179" type="line"/>
      <point x="619" y="346" type="line"/>
      <point x="619" y="360" type="line"/>
      <point x="410" y="527" type="line"/>
      <point x="402" y="514" type="line"/>
      <point x="486" y="371" type="line"/>
      <point x="-83" y="371" type="line"/>
      <point x="0" y="514" type="line"/>
      <point x="-7" y="527" type="line"/>
      <point x="-216" y="360" type="line"/>
      <point x="-216" y="346" type="line"/>
      <point x="-7" y="179" type="line"/>
      <point x="0" y="192" type="line"/>
      <point x="-83" y="335" type="line"/>
    </contour>
  </outline>
</glyph>
<glyph name="acute.pl" format="2">
  <advance width="351"/>
  <anchor x="152.4" y="489.0" name="_top"/>
  <outline>
    <contour>
      <point x="134.6075" y="687.65" type="curve" smooth="yes"/>
      <point x="133.435" y="587.85" type="line"/>
      <point x="133.435" y="575.1" type="line"/>
      <point x="152.68" y="575.1" type="line"/>
      <point x="185.2625" y="662.25" type="line" smooth="yes"/>
      <point x="199.0875" y="690.85"/>
      <point x="205.505" y="711.45"/>
      <point x="205.505" y="730.25" type="curve" smooth="yes"/>
      <point x="205.505" y="754.9"/>
      <point x="195.465" y="770.75"/>
      <point x="174.04" y="770.75" type="curve" smooth="yes"/>
      <point x="147.82" y="770.75"/>
      <point x="135.63" y="745.65"/>
    </contour>
  </outline>
</glyph>
<glyph name="baht.proportional" format="2">
  <advance width="456"/>
  <outline>
    <contour>
      <point x="215.9975" y="790.0" type="line"/>
      <point x="215.9975" y="685.5" type="line"/>
      <point x="217.91" y="669.5" type="line"/>
      <point x="217.91" y="37.45" type="line"/>
      <point x="215.9975" y="27.45" type="line"/>
      <point x="215.9975" y="-110.0" type="line"/>
      <point x="248.85999999999999" y="-110.0" type="line"/>
      <point x="248.85999999999999" y="28.5" type="line"/>
      <point x="246.925" y="40.5" type="line"/>
      <point x="246.925" y="671.5" type="line"/>
      <point x="248.85999999999999" y="682.5" type="line"/>
      <point x="248.85999999999999" y="790.0" type="line"/>
    </contour>
    <contour>
      <point x="234.285" y="700.5" type="curve"/>
      <point x="15.6625" y="700.5" type="line"/>
      <point x="15.6625" y="667.9" type="line"/>
      <point x="23.1125" y="667.9" type="line" smooth="yes"/>
      <point x="46.072500000000005" y="667.9"/>
      <point x="63.4775" y="660.9"/>
      <point x="63.4775" y="631.9" type="curve" smooth="yes"/>
      <point x="63.4775" y="78.1" type="line" smooth="yes"/>
      <point x="63.4775" y="49.1"/>
      <point x="46.072500000000005" y="42.1"/>
      <point x="23.1125" y="42.1" type="curve" smooth="yes"/>
      <point x="15.6625" y="42.1" type="line"/>
      <point x="15.6625" y="9.5" type="line"/>
      <point x="238.1225" y="9.5" type="line" smooth="yes"/>
      <point x="368.55" y="9.5"/>
      <point x="437.4775" y="86.4"/>
      <point x="437.4775" y="210.45" type="curve" smooth="yes"/>
      <point x="437.4775" y="318.0"/>
      <point x="367.605" y="385.25"/>
      <point x="241.5" y="385.65" type="curve"/>
      <point x="238.64" y="363.5" type="line"/>
      <point x="356.145" y="363.85"/>
      <point x="419.2675" y="429.8"/>
      <point x="419.2675" y="530.55" type="curve" smooth="yes"/>
      <point x="419.2675" y="635.55"/>
      <point x="356.09" y="700.5"/>
    </contour>
    <contour>
      <point x="244.04500000000002" y="389.1" type="curve"/>
      <point x="137.4275" y="389.1" type="line"/>
      <point x="137.4275" y="659.2" type="line"/>
      <point x="232.8975" y="659.2" type="line"/>
      <point x="310.3575" y="659.2"/>
      <point x="341.6175" y="613.7"/>
      <point x="341.6175" y="525.0" type="curve" smooth="yes"/>
      <point x="341.6175" y="451.75"/>
      <point x="317.335" y="389.1"/>
    </contour>
    <contour>
      <point x="247.6875" y="354.7" type="line"/>
      <point x="330.095" y="354.7"/>
      <point x="360.6775" y="291.8"/>
      <point x="360.6775" y="212.9" type="curve" smooth="yes"/>
      <point x="360.6775" y="107.85"/>
      <point x="323.09499999999997" y="49.849999999999994"/>
      <point x="235.435" y="49.849999999999994" type="curve" smooth="yes"/>
      <point x="137.4275" y="49.849999999999994" type="line"/>
      <point x="137.4275" y="354.7" type="line"/>
    </contour>
  </outline>
</glyph>
<glyph name="blackdiamond" format="2">
  <advance width="437"/>
  <outline>
    <contour>
      <point x="402.0" y="313.0" type="line"/>
      <point x="218.35" y="574.0" type="line"/>
      <point x="34.7" y="313.0" type="line"/>
      <point x="218.35" y="52.0" type="line"/>
    </contour>
  </outline>
</glyph>
<glyph name="blackuppointingtriangle" format="2">
  <advance width="453"/>
  <outline>
    <contour>
      <point x="38.85" y="91.0" type="line"/>
      <point x="414.9" y="91.0" type="line"/>
      <point x="225.95" y="464.0" type="line"/>
    </contour>
  </outline>
</glyph>
<glyph name="circumflex_grave.uc" format="2">
  <advance width="359"/>
  <anchor x="171.9" y="696.0" name="_top"/>
  <outline>
    <contour>
      <point x="312.4675" y="955.05" type="curve" smooth="yes"/>
      <point x="309.565" y="957.7"/>
      <point x="339.685" y="874.65"/>
      <point x="334.48" y="874.65" type="curve" smooth="yes"/>
      <point x="329.7925" y="874.65"/>
      <point x="326.7175" y="860.75"/>
      <point x="326.7175" y="858.85" type="curve" smooth="yes"/>
      <point x="326.7175" y="856.25"/>
      <point x="320.0" y="855.1"/>
      <point x="326.3225" y="854.0" type="curve" smooth="yes"/>
      <point x="283.5425" y="891.75" type="line"/>
      <point x="262.4625" y="907.9"/>
      <point x="254.29250000000002" y="929.75"/>
      <point x="254.29250000000002" y="954.45" type="curve"/>
      <point x="254.29250000000002" y="973.45"/>
      <point x="264.28" y="992.9"/>
      <point x="279.8775" y="992.9" type="curve"/>
      <point x="294.67725409836066" y="992.9"/>
      <point x="301.49926061507364" y="982.6239949731662"/>
    </contour>
    <component base="circumflex.uc" xOffset="-82.79"/>
  </outline>
</glyph>
<glyph name="circumflex_hook" format="2">
  <advance width="359"/>
  <anchor x="171.9" y="559.0" name="_top"/>
  <outline>
    <contour>
      <point x="213.0825" y="806.05" type="line"/>
      <point x="215.255" y="847.15"/>
      <point x="241.055" y="881.7"/>
      <point x="290.775" y="881.7" type="curve" smooth="yes"/>
      <point x="339.4825" y="881.7"/>
      <point x="367.3775" y="855.3"/>
      <point x="367.3775" y="811.05" type="curve"/>
      <point x="367.3775" y="758.85"/>
      <point x="328.195" y="736.75"/>
      <point x="282.755" y="731.7" type="curve"/>
      <point x="300.5775" y="754.9" type="line"/>
      <point x="300.5775" y="703.95" type="line"/>
      <point x="269.605" y="703.95" type="line"/>
      <point x="269.605" y="750.9" type="line"/>
      <point x="297.0175" y="753.9"/>
      <point x="309.9625" y="772.6"/>
      <point x="309.9625" y="807.05" type="curve"/>
      <point x="309.9625" y="834.4"/>
      <point x="301.985" y="850.05"/>
      <point x="285.3025" y="850.05" type="curve" smooth="yes"/>
      <point x="268.07" y="850.05"/>
      <point x="259.6425" y="832.5"/>
      <point x="257.62" y="806.05" type="curve"/>
    </contour>
    <component base="circumflex" xOffset="-87.04"/>
  </outline>
</glyph>
<glyph name="colonsign" format="2">
  <advance width="393"/>
  <outline>
    <contour>
      <point x="228.7025" y="701.0" type="curve" smooth="yes"/>
      <point x="99.15199511400651" y="701.0"/>
      <point x="12.222499999999998" y="559.6"/>
      <point x="12.222499999999998" y="355.0" type="curve" smooth="yes"/>
      <point x="12.222499999999998" y="147.6"/>
      <point x="98.34045" y="9.0"/>
      <point x="222.49" y="9.0" type="curve" smooth="yes"/>
      <point x="314.2041631799163" y="9.0"/>
      <point x="367.805" y="102.8"/>
      <point x="387.6275" y="238.0" type="curve"/>
      <point x="361.27750000000003" y="253.5" type="line"/>
      <point x="344.5725" y="131.85"/>
      <point x="301.8875" y="42.4"/>
      <point x="227.60750000000002" y="42.4" type="curve" smooth="yes"/>
      <point x="138.3725" y="42.4"/>
      <point x="86.5825" y="155.7"/>
      <point x="86.5825" y="355.0" type="curve" smooth="yes"/>
      <point x="86.5825" y="547.4"/>
      <point x="135.61607862903475" y="667.55"/>
      <point x="229.82" y="667.55" type="curve" smooth="yes"/>
      <point x="291.9231746031746" y="667.55"/>
      <point x="340.68989799122244" y="622.8852607796362"/>
      <point x="357.205" y="583.95" type="curve"/>
      <point x="361.16" y="603.35"/>
      <point x="335.135" y="649.9"/>
      <point x="318.1175" y="648.15" type="curve"/>
      <point x="318.1175" y="525.7" type="line"/>
      <point x="385.295" y="525.7" type="line"/>
      <point x="385.295" y="629.35" type="line"/>
      <point x="367.25301892700196" y="652.7827381707713"/>
      <point x="312.87605263157894" y="701.0"/>
    </contour>
    <contour>
      <point x="181.70499999999998" y="790.0" type="line"/>
      <point x="97.41749999999999" y="-120.0" type="line"/>
      <point x="127.13" y="-120.0" type="line"/>
      <point x="211.4175" y="790.0" type="line"/>
    </contour>
    <contour>
      <point x="273.6475" y="790.0" type="line"/>
      <point x="189.4875" y="-120.0" type="line"/>
      <point x="219.0725" y="-120.0" type="line"/>
      <point x="303.36" y="790.0" type="line"/>
    </contour>
  </outline>
</glyph>
<glyph name="eight.lintab" format="2">
  <advance width="400"/>
  <outline>
    <contour>
      <point x="200" y="-10" type="curve" smooth="yes"/>
      <point x="302" y="-10"/>
      <point x="373" y="67"/>
      <point x="373" y="193" type="curve" smooth="yes"/>
      <point x="373" y="293"/>
      <point x="333" y="360"/>
      <point x="236" y="389" type="curve"/>
      <point x="251" y="372" type="line"/>
      <point x="252" y="387" type="line"/>
      <point x="236" y="369" type="line"/>
      <point x="320" y="400"/>
      <point x="347" y="460"/>
      <point x="347" y="543" type="curve" smooth="yes"/>
      <point x="347" y="652"/>
      <point x="287" y="720"/>
      <point x="200" y="720" type="curve" smooth="yes"/>
      <point x="113" y="720"/>
      <point x="52" y="652"/>
      <point x="52" y="543" type="curve" smooth="yes"/>
      <point x="53" y="460"/>
      <point x="80" y="400"/>
      <point x="165" y="369" type="curve"/>
      <point x="151" y="389" type="line"/>
      <point x="151" y="369" type="line"/>
      <point x="166" y="389" type="line"/>
      <point x="67" y="360"/>
      <point x="27" y="292"/>
      <point x="27" y="193" type="curve" smooth="yes"/>
      <point x="27" y="68"/>
      <point x="97" y="-10"/>
    </contour>
    <contour>
      <point x="200" y="20" type="curve" smooth="yes"/>
      <point x="143" y="20"/>
      <point x="109" y="64"/>
      <point x="109" y="192" type="curve" smooth="yes"/>
      <point x="109" y="320"/>
      <point x="143" y="362"/>
      <point x="200" y="362" type="curve" smooth="yes"/>
      <point x="257" y="362"/>
      <point x="291" y="320"/>
      <point x="291" y="192" type="curve" smooth="yes"/>
      <point x="291" y="64"/>
      <point x="257" y="20"/>
    </contour>
    <contour>
      <point x="200" y="390" type="curve" smooth="yes"/>
      <point x="150" y="390"/>
      <point x="126" y="430"/>
      <point x="126" y="538" type="curve" smooth="yes"/>
      <point x="126" y="645"/>
      <point x="150" y="690"/>
      <point x="200" y="690" type="curve" smooth="yes"/>
      <point x="250" y="690"/>
      <point x="273" y="645"/>
      <point x="273" y="538" type="curve" smooth="yes"/>
      <point x="273" y="431"/>
      <point x="250" y="390"/>
    </contour>
  </outline>
</glyph>
<glyph name="eight.oldprop" format="2">
  <advance width="396"/>
  <outline>
    <contour>
      <point x="198" y="-10" type="curve" smooth="yes"/>
      <point x="300" y="-10"/>
      <point x="371" y="67"/>
      <point x="371" y="193" type="curve" smooth="yes"/>
      <point x="371" y="293"/>
      <point x="331" y="360"/>
      <point x="234" y="389" type="curve"/>
      <point x="249" y="372" type="line"/>
      <point x="250" y="387" type="line"/>
      <point x="234" y="369" type="line"/>
      <point x="318" y="400"/>
      <point x="345" y="460"/>
      <point x="345" y="543" type="curve" smooth="yes"/>
      <point x="345" y="652"/>
      <point x="285" y="720"/>
      <point x="198" y="720" type="curve" smooth="yes"/>
      <point x="111" y="720"/>
      <point x="50" y="652"/>
      <point x="50" y="543" type="curve" smooth="yes"/>
      <point x="51" y="460"/>
      <point x="78" y="400"/>
      <point x="163" y="369" type="curve"/>
      <point x="149" y="389" type="line"/>
      <point x="149" y="369" type="line"/>
      <point x="164" y="389" type="line"/>
      <point x="65" y="360"/>
      <point x="25" y="292"/>
      <point x="25" y="193" type="curve" smooth="yes"/>
      <point x="25" y="68"/>
      <point x="95" y="-10"/>
    </contour>
    <contour>
      <point x="198" y="20" type="curve" smooth="yes"/>
      <point x="141" y="20"/>
      <point x="107" y="64"/>
      <point x="107" y="192" type="curve" smooth="yes"/>
      <point x="107" y="320"/>
      <point x="141" y="362"/>
      <point x="198" y="362" type="curve" smooth="yes"/>
      <point x="255" y="362"/>
      <point x="289" y="320"/>
      <point x="289" y="192" type="curve" smooth="yes"/>
      <point x="289" y="64"/>
      <point x="255" y="20"/>
    </contour>
    <contour>
      <point x="198" y="390" type="curve" smooth="yes"/>
      <point x="148" y="390"/>
      <point x="124" y="430"/>
      <point x="124" y="538" type="curve" smooth="yes"/>
      <point x="124" y="645"/>
      <point x="148" y="690"/>
      <point x="198" y="690" type="curve" smooth="yes"/>
      <point x="248" y="690"/>
      <point x="271" y="645"/>
      <point x="271" y="538" type="curve" smooth="yes"/>
      <point x="271" y="431"/>
      <point x="248" y="390"/>
    </contour>
  </outline>
</glyph>
<glyph name="eight.oldtab" format="2">
  <advance width="400"/>
  <outline>
    <contour>
      <point x="200" y="-10" type="curve" smooth="yes"/>
      <point x="302" y="-10"/>
      <point x="378" y="67"/>
      <point x="378" y="193" type="curve" smooth="yes"/>
      <point x="378" y="293"/>
      <point x="333" y="360"/>
      <point x="236" y="389" type="curve"/>
      <point x="251" y="372" type="line"/>
      <point x="252" y="387" type="line"/>
      <point x="236" y="369" type="line"/>
      <point x="320" y="400"/>
      <point x="352" y="460"/>
      <point x="352" y="543" type="curve" smooth="yes"/>
      <point x="352" y="652"/>
      <point x="287" y="720"/>
      <point x="200" y="720" type="curve" smooth="yes"/>
      <point x="113" y="720"/>
      <point x="47" y="652"/>
      <point x="47" y="543" type="curve" smooth="yes"/>
      <point x="48" y="460"/>
      <point x="80" y="400"/>
      <point x="165" y="369" type="curve"/>
      <point x="151" y="389" type="line"/>
      <point x="151" y="369" type="line"/>
      <point x="166" y="389" type="line"/>
      <point x="67" y="360"/>
      <point x="22" y="292"/>
      <point x="22" y="193" type="curve" smooth="yes"/>
      <point x="22" y="68"/>
      <point x="97" y="-10"/>
    </contour>
    <contour>
      <point x="200" y="20" type="curve" smooth="yes"/>
      <point x="143" y="20"/>
      <point x="104" y="64"/>
      <point x="104" y="192" type="curve" smooth="yes"/>
      <point x="104" y="320"/>
      <point x="143" y="362"/>
      <point x="200" y="362" type="curve" smooth="yes"/>
      <point x="257" y="362"/>
      <point x="296" y="320"/>
      <point x="296" y="192" type="curve" smooth="yes"/>
      <point x="296" y="64"/>
      <point x="257" y="20"/>
    </contour>
    <contour>
      <point x="200" y="390" type="curve" smooth="yes"/>
      <point x="150" y="390"/>
      <point x="121" y="430"/>
      <point x="121" y="538" type="curve" smooth="yes"/>
      <point x="121" y="645"/>
      <point x="150" y="690"/>
      <point x="200" y="690" type="curve" smooth="yes"/>
      <point x="250" y="690"/>
      <point x="278" y="645"/>
      <point x="278" y="538" type="curve" smooth="yes"/>
      <point x="278" y="431"/>
      <point x="250" y="390"/>
    </contour>
  </outline>
</glyph>
<glyph name="f_f_h" format="2">
  <advance width="400"/>
  <outline>
    <contour>
      <point x="-429" y="518" type="line"/>
      <point x="-429" y="486" type="line"/>
      <point x="-87" y="486" type="line"/>
      <point x="-87" y="518" type="line"/>
    </contour>
    <contour>
      <point x="674" y="40" type="line" smooth="yes"/>
      <point x="674" y="33"/>
      <point x="630" y="30"/>
      <point x="602" y="30" type="curve"/>
      <point x="602" y="30" type="line"/>
      <point x="602" y="0" type="line"/>
      <point x="841" y="0" type="line"/>
      <point x="841" y="30" type="line"/>
      <point x="840" y="30" type="line"/>
      <point x="796" y="30"/>
      <point x="763" y="37"/>
      <point x="763" y="66" type="curve" smooth="yes"/>
      <point x="763" y="367" type="line" smooth="yes"/>
      <point x="763" y="474"/>
      <point x="704" y="528"/>
      <point x="608" y="528" type="curve" smooth="yes"/>
      <point x="510" y="528"/>
      <point x="453" y="472"/>
      <point x="397" y="379" type="curve"/>
      <point x="413" y="355" type="line"/>
      <point x="462" y="441"/>
      <point x="511" y="491"/>
      <point x="584" y="491" type="curve" smooth="yes"/>
      <point x="643" y="491"/>
      <point x="674" y="457"/>
      <point x="674" y="367" type="curve" smooth="yes"/>
    </contour>
    <contour>
      <point x="-92" y="518" type="line"/>
      <point x="-92" y="486" type="line"/>
      <point x="230" y="486" type="line"/>
      <point x="230" y="518" type="line"/>
    </contour>
    <contour>
      <point x="264" y="0" type="line"/>
      <point x="504" y="0" type="line"/>
      <point x="504" y="30" type="line"/>
      <point x="504" y="30" type="line"/>
      <point x="468" y="30"/>
      <point x="432" y="34"/>
      <point x="432" y="40" type="curve"/>
      <point x="432" y="750" type="line"/>
      <point x="264" y="750" type="line"/>
      <point x="343" y="715" type="line"/>
      <point x="343" y="66" type="line" smooth="yes"/>
      <point x="343" y="37"/>
      <point x="309" y="30"/>
      <point x="265" y="30" type="curve"/>
      <point x="264" y="30" type="line"/>
    </contour>
    <contour>
      <point x="-331" y="66" type="line" smooth="yes"/>
      <point x="-331" y="37"/>
      <point x="-366" y="30"/>
      <point x="-423" y="30" type="curve" smooth="yes"/>
      <point x="-429" y="30" type="line"/>
      <point x="-429" y="0" type="line"/>
      <point x="-149" y="0" type="line"/>
      <point x="-149" y="30" type="line"/>
      <point x="-155" y="30" type="line" smooth="yes"/>
      <point x="-204" y="30"/>
      <point x="-242" y="33"/>
      <point x="-242" y="54" type="curve" smooth="yes"/>
      <point x="-242" y="572" type="line" smooth="yes"/>
      <point x="-242" y="672"/>
      <point x="-212" y="714"/>
      <point x="-127" y="714" type="curve" smooth="yes"/>
      <point x="-89" y="714"/>
      <point x="-64" y="704"/>
      <point x="-48" y="699" type="curve"/>
      <point x="-48" y="735" type="line"/>
      <point x="-60" y="740"/>
      <point x="-93" y="748"/>
      <point x="-129" y="748" type="curve" smooth="yes"/>
      <point x="-255" y="748"/>
      <point x="-331" y="688"/>
      <point x="-331" y="572" type="curve" smooth="yes"/>
    </contour>
    <contour>
      <point x="6" y="66" type="line" smooth="yes"/>
      <point x="6" y="37"/>
      <point x="-25" y="30"/>
      <point x="-74" y="30" type="curve" smooth="yes"/>
      <point x="-85" y="30" type="line"/>
      <point x="-85" y="0" type="line"/>
      <point x="200" y="0" type="line"/>
      <point x="200" y="30" type="line"/>
      <point x="194" y="30" type="line" smooth="yes"/>
      <point x="138" y="30"/>
      <point x="95" y="33"/>
      <point x="95" y="54" type="curve" smooth="yes"/>
      <point x="95" y="565" type="line" smooth="yes"/>
      <point x="95" y="678"/>
      <point x="142" y="724"/>
      <point x="235" y="724" type="curve" smooth="yes"/>
      <point x="298" y="724"/>
      <point x="338" y="702"/>
      <point x="361" y="672" type="curve"/>
      <point x="386" y="719" type="line"/>
      <point x="365" y="739"/>
      <point x="309" y="758"/>
      <point x="230" y="758" type="curve" smooth="yes"/>
      <point x="96" y="758"/>
      <point x="6" y="693"/>
      <point x="6" y="568" type="curve" smooth="yes"/>
    </contour>
  </outline>
</glyph>
<glyph name="five.lintab" format="2">
  <advance width="400"/>
  <outline>
    <contour>
      <point x="181" y="-10" type="curve" smooth="yes"/>
      <point x="98" y="-10"/>
      <point x="40" y="36"/>
      <point x="19" y="117" type="curve"/>
      <point x="51" y="128" type="line"/>
      <point x="69" y="60"/>
      <point x="114" y="23"/>
      <point x="170" y="23" type="curve" smooth="yes"/>
      <point x="255" y="23"/>
      <point x="287" y="100"/>
      <point x="287" y="242" type="curve" smooth="yes"/>
      <point x="287" y="364"/>
      <point x="260" y="433"/>
      <point x="186" y="433" type="curve" smooth="yes"/>
      <point x="150" y="433"/>
      <point x="108" y="417"/>
      <point x="82" y="349" type="curve"/>
      <point x="59" y="349" type="line"/>
      <point x="59" y="710" type="line"/>
      <point x="346" y="710" type="line"/>
      <point x="335" y="635" type="line"/>
      <point x="74" y="635" type="line"/>
      <point x="100" y="690" type="line"/>
      <point x="100" y="397" type="line"/>
      <point x="98" y="384"/>
      <point x="78" y="369"/>
      <point x="75" y="377" type="curve"/>
      <point x="103" y="445"/>
      <point x="148" y="467"/>
      <point x="203" y="467" type="curve" smooth="yes"/>
      <point x="317" y="467"/>
      <point x="367" y="371"/>
      <point x="367" y="242" type="curve" smooth="yes"/>
      <point x="367" y="93"/>
      <point x="301" y="-10"/>
    </contour>
  </outline>
</glyph>
<glyph name="five.oldtab" format="2">
  <advance width="400"/>
  <guideline x="52" y="48" angle="284.70830389968273" identifier="VyGXDUaswS"/>
  <outline>
    <contour>
      <point x="188" y="-90" type="curve" smooth="yes"/>
      <point x="105" y="-90"/>
      <point x="47" y="-44"/>
      <point x="26" y="37" type="curve"/>
      <point x="58" y="48" type="line"/>
      <point x="76" y="-20"/>
      <point x="121" y="-57"/>
      <point x="177" y="-57" type="curve" smooth="yes"/>
      <point x="262" y="-57"/>
      <point x="294" y="14"/>
      <point x="294" y="148" type="curve" smooth="yes"/>
      <point x="294" y="264"/>
      <point x="269" y="332"/>
      <point x="193" y="332" type="curve" smooth="yes"/>
      <point x="157" y="332"/>
      <point x="115" y="316"/>
      <point x="89" y="248" type="curve"/>
      <point x="66" y="248" type="line"/>
      <point x="66" y="609" type="line"/>
      <point x="353" y="609" type="line"/>
      <point x="342" y="534" type="line"/>
      <point x="81" y="534" type="line"/>
      <point x="107" y="589" type="line"/>
      <point x="107" y="296" type="line"/>
      <point x="105" y="283"/>
      <point x="85" y="268"/>
      <point x="82" y="276" type="curve"/>
      <point x="110" y="344"/>
      <point x="155" y="366"/>
      <point x="210" y="366" type="curve" smooth="yes"/>
      <point x="324" y="366"/>
      <point x="374" y="271"/>
      <point x="374" y="148" type="curve" smooth="yes"/>
      <point x="374" y="7"/>
      <point x="308" y="-90"/>
    </contour>
  </outline>
</glyph>
<glyph name="four.linprop" format="2">
  <advance width="389"/>
  <outline>
    <contour>
      <point x="151" y="0" type="line"/>
      <point x="372" y="0" type="line"/>
      <point x="372" y="32" type="line"/>
      <point x="360" y="32" type="line" smooth="yes"/>
      <point x="315" y="32"/>
      <point x="304" y="40"/>
      <point x="304" y="71" type="curve"/>
      <point x="304" y="710" type="line"/>
      <point x="244" y="710" type="line"/>
      <point x="224" y="674" type="line"/>
      <point x="224" y="71" type="line"/>
      <point x="224" y="40"/>
      <point x="209" y="32"/>
      <point x="168" y="32" type="curve" smooth="yes"/>
      <point x="151" y="32" type="line"/>
    </contour>
    <contour>
      <point x="15" y="201" type="line"/>
      <point x="379" y="201" type="line"/>
      <point x="379" y="256" type="line"/>
      <point x="38" y="256" type="line"/>
      <point x="36" y="220" type="line"/>
      <point x="255" y="697" type="line"/>
      <point x="260" y="710" type="line"/>
      <point x="230" y="710" type="line"/>
      <point x="15" y="241" type="line"/>
    </contour>
  </outline>
</glyph>
<glyph name="four.midprop" format="2">
  <advance width="400"/>
  <guideline x="38" y="135" angle="64.198847283852" identifier="Rpbw1M3ANY"/>
  <outline>
    <contour>
      <point x="23" y="116" type="line"/>
      <point x="384" y="116" type="line"/>
      <point x="384" y="171" type="line"/>
      <point x="46" y="171" type="line"/>
      <point x="44" y="135" type="line"/>
      <point x="257" y="596" type="line"/>
      <point x="262" y="609" type="line"/>
      <point x="232" y="609" type="line"/>
      <point x="23" y="156" type="line"/>
    </contour>
    <contour>
      <point x="306" y="-77" type="line"/>
      <point x="306" y="609" type="line"/>
      <point x="246" y="609" type="line"/>
      <point x="226" y="573" type="line"/>
      <point x="226" y="-77" type="line"/>
    </contour>
  </outline>
</glyph>
<glyph name="minus.sup" format="2">
  <advance width="282"/>
  <outline>
    <contour>
      <point x="246.79500000000002" y="579.9" type="line"/>
      <point x="35.3225" y="579.9" type="line"/>
      <point x="35.3225" y="552.2" type="line"/>
      <point x="246.79500000000002" y="552.2" type="line"/>
    </contour>
  </outline>
</glyph>
<glyph name="one.linprop" format="2">
  <advance width="400"/>
  <outline>
    <contour>
      <point x="264" y="71" type="curve" smooth="yes"/>
      <point x="264" y="710" type="line"/>
      <point x="210" y="710" type="line"/>
      <point x="185" y="652"/>
      <point x="135" y="628"/>
      <point x="61" y="627" type="curve"/>
      <point x="61" y="569" type="line"/>
      <point x="120" y="568"/>
      <point x="181" y="617"/>
      <point x="195" y="669" type="curve"/>
      <point x="193" y="664"/>
      <point x="184" y="663"/>
      <point x="181" y="656" type="curve"/>
      <point x="181" y="71" type="line" smooth="yes"/>
      <point x="181" y="40"/>
      <point x="152" y="32"/>
      <point x="101" y="32" type="curve" smooth="yes"/>
      <point x="73" y="32" type="line"/>
      <point x="73" y="0" type="line"/>
      <point x="372" y="0" type="line"/>
      <point x="372" y="32" type="line"/>
      <point x="350" y="32" type="line" smooth="yes"/>
      <point x="295" y="32"/>
      <point x="264" y="40"/>
    </contour>
  </outline>
</glyph>
<glyph name="peseta.proportional" format="2">
  <advance width="591"/>
  <outline>
    <contour>
      <point x="23.810000000000002" y="0.0" type="line"/>
      <point x="226.2525" y="0.0" type="line"/>
      <point x="226.2525" y="32.6" type="line"/>
      <point x="213.33" y="32.6" type="line" smooth="yes"/>
      <point x="188.4875" y="32.6"/>
      <point x="158.54" y="35.6"/>
      <point x="158.54" y="57.8" type="curve" smooth="yes"/>
      <point x="158.54" y="302.5" type="line"/>
      <point x="176.545" y="302.5" type="line" smooth="yes"/>
      <point x="288.78136792453" y="302.5"/>
      <point x="358.3575" y="383.1"/>
      <point x="358.3575" y="509.75" type="curve" smooth="yes"/>
      <point x="358.3575" y="637.2"/>
      <point x="291.243146551735" y="710.0"/>
      <point x="177.47" y="710.0" type="curve" smooth="yes"/>
      <point x="23.810000000000002" y="710.0" type="line"/>
      <point x="23.810000000000002" y="677.4" type="line"/>
      <point x="28.5825" y="677.4" type="line" smooth="yes"/>
      <point x="56.77" y="677.4"/>
      <point x="80.89" y="670.4"/>
      <point x="80.89" y="641.4" type="curve" smooth="yes"/>
      <point x="80.89" y="68.6" type="line" smooth="yes"/>
      <point x="80.89" y="39.6"/>
      <point x="56.8975" y="32.6"/>
      <point x="28.5825" y="32.6" type="curve" smooth="yes"/>
      <point x="23.810000000000002" y="32.6" type="line"/>
    </contour>
    <contour>
      <point x="177.8775" y="671.75" type="line" smooth="yes"/>
      <point x="245.13013698631" y="671.75"/>
      <point x="279.71999999999997" y="616.5"/>
      <point x="279.71999999999997" y="508.75" type="curve" smooth="yes"/>
      <point x="279.71999999999997" y="402.9"/>
      <point x="244.980769230775" y="339.8"/>
      <point x="174.45" y="339.8" type="curve" smooth="yes"/>
      <point x="158.54" y="339.8" type="line"/>
      <point x="158.54" y="671.75" type="line"/>
    </contour>
    <contour>
      <point x="342.35" y="482.25" type="line"/>
      <point x="565.785" y="482.25" type="line"/>
      <point x="565.785" y="517.5" type="line"/>
      <point x="453.245" y="517.5" type="line"/>
      <point x="430.0125" y="594.3" type="line"/>
      <point x="430.0125" y="541.35"/>
      <point x="401.26" y="514.25"/>
      <point x="359.69" y="514.25" type="curve" smooth="yes"/>
      <point x="344.135" y="514.25" type="line"/>
    </contour>
    <contour>
      <point x="483.3575" y="121.95" type="curve" smooth="yes"/>
      <point x="483.3575" y="647.05" type="line"/>
      <point x="430.0125" y="647.05" type="line"/>
      <point x="430.0125" y="523.75" type="line"/>
      <point x="408.88" y="518.45" type="line"/>
      <point x="408.88" y="122.85" type="line" smooth="yes"/>
      <point x="408.88" y="26.25"/>
      <point x="453.6425" y="-10.05"/>
      <point x="511.745" y="-10.05" type="curve" smooth="yes"/>
      <point x="534.5575" y="-10.05"/>
      <point x="553.7574999999999" y="-3.2"/>
      <point x="565.785" y="6.6" type="curve"/>
      <point x="565.785" y="42.9" type="line"/>
      <point x="561.5074999999999" y="40.95"/>
      <point x="546.4475" y="28.5"/>
      <point x="527.86" y="28.5" type="curve" smooth="yes"/>
      <point x="501.395" y="28.5"/>
      <point x="483.3575" y="52.9"/>
    </contour>
  </outline>
</glyph>
<glyph name="plus.sup" format="2">
  <advance width="282"/>
  <outline>
    <contour>
      <point x="126.33" y="721.05" type="line"/>
      <point x="126.33" y="411.05" type="line"/>
      <point x="154.0875" y="411.05" type="line"/>
      <point x="154.0875" y="721.05" type="line"/>
    </contour>
    <contour>
      <point x="246.79500000000002" y="579.9" type="line"/>
      <point x="35.3225" y="579.9" type="line"/>
      <point x="35.3225" y="552.2" type="line"/>
      <point x="246.79500000000002" y="552.2" type="line"/>
    </contour>
  </outline>
</glyph>
<glyph name="schwa" format="2">
  <advance width="388"/>
  <outline>
    <contour>
      <point x="179.07" y="527.8" type="curve" smooth="yes"/>
      <point x="111.4" y="527.8"/>
      <point x="57.1775" y="485.1"/>
      <point x="28.455" y="411.7" type="curve"/>
      <point x="52.2875" y="387.4" type="line"/>
      <point x="75.4425" y="447.45"/>
      <point x="113.83" y="492.4"/>
      <point x="171.0725" y="492.4" type="curve" smooth="yes"/>
      <point x="242.87" y="492.4"/>
      <point x="283.76" y="409.7"/>
      <point x="283.76" y="262.65" type="curve" smooth="yes"/>
      <point x="283.76" y="113.45"/>
      <point x="243.365" y="23.05"/>
      <point x="183.91" y="23.05" type="curve" smooth="yes"/>
      <point x="128.91500000000002" y="23.05"/>
      <point x="102.59" y="93.75"/>
      <point x="100.7175" y="225.8" type="curve"/>
      <point x="81.71249999999999" y="213.45" type="line"/>
      <point x="313.96999999999997" y="213.45" type="line"/>
      <point x="313.6925" y="246.3" type="line"/>
      <point x="23.637500000000003" y="246.3" type="line"/>
      <point x="24.6375" y="80.35"/>
      <point x="83.495" y="-12.1"/>
      <point x="184.3825" y="-12.1" type="curve" smooth="yes"/>
      <point x="285.83" y="-12.1"/>
      <point x="363.67" y="98.65"/>
      <point x="363.67" y="260.75" type="curve" smooth="yes"/>
      <point x="363.67" y="423.95"/>
      <point x="286.775" y="527.8"/>
    </contour>
  </outline>
</glyph>
<glyph name="seven.den" format="2">
  <advance width="229"/>
  <outline>
    <contour>
      <point x="103" y="288" type="line" smooth="yes"/>
      <point x="72" y="288"/>
      <point x="61" y="284"/>
      <point x="57" y="261" type="curve" smooth="yes"/>
      <point x="49" y="212" type="line"/>
      <point x="25" y="212" type="line"/>
      <point x="25" y="341" type="line"/>
      <point x="214" y="341" type="line"/>
      <point x="214" y="298" type="line"/>
      <point x="161" y="212"/>
      <point x="140" y="145"/>
      <point x="135" y="0" type="curve"/>
      <point x="70" y="0" type="line"/>
      <point x="81" y="122"/>
      <point x="162" y="266"/>
      <point x="194" y="300" type="curve"/>
      <point x="198" y="288" type="line"/>
    </contour>
  </outline>
</glyph>
<glyph name="six.lintab" format="2">
  <advance width="400"/>
  <outline>
    <contour>
      <point x="327" y="718" type="line"/>
      <point x="197" y="664"/>
      <point x="112" y="512"/>
      <point x="112" y="279" type="curve" smooth="yes"/>
      <point x="112" y="104"/>
      <point x="148" y="20"/>
      <point x="209" y="20" type="curve" smooth="yes"/>
      <point x="268" y="20"/>
      <point x="294" y="98"/>
      <point x="294" y="231" type="curve" smooth="yes"/>
      <point x="294" y="352"/>
      <point x="271" y="419"/>
      <point x="210" y="419" type="curve" smooth="yes"/>
      <point x="168" y="419"/>
      <point x="129" y="387"/>
      <point x="107" y="287" type="curve"/>
      <point x="108" y="297"/>
      <point x="100" y="308"/>
      <point x="98" y="314" type="curve"/>
      <point x="116" y="407"/>
      <point x="161" y="453"/>
      <point x="228" y="453" type="curve" smooth="yes"/>
      <point x="319" y="453"/>
      <point x="374" y="367"/>
      <point x="374" y="233" type="curve" smooth="yes"/>
      <point x="374" y="89"/>
      <point x="308" y="-10"/>
      <point x="209" y="-10" type="curve" smooth="yes"/>
      <point x="108" y="-10"/>
      <point x="32" y="95"/>
      <point x="32" y="287" type="curve" smooth="yes"/>
      <point x="32" y="520"/>
      <point x="148" y="682"/>
      <point x="320" y="740" type="curve"/>
    </contour>
  </outline>
</glyph>
<glyph name="sterling.proportional" format="2">
  <advance width="414"/>
  <outline>
    <contour>
      <point x="19.8125" y="356.4" type="line"/>
      <point x="19.8125" y="320.4" type="line"/>
      <point x="294.5475" y="320.4" type="line"/>
      <point x="294.5475" y="356.4" type="line"/>
    </contour>
    <contour>
      <point x="19.8125" y="-12.85" type="line"/>
      <point x="131.15" y="17.9"/>
      <point x="183.32" y="109.85"/>
      <point x="183.32" y="230.8" type="curve" smooth="yes"/>
      <point x="183.32" y="355.694975961575"/>
      <point x="140.2775" y="421.486754807685"/>
      <point x="140.2775" y="536.45" type="curve" smooth="yes"/>
      <point x="140.2775" y="636.750687919465"/>
      <point x="180.166513157935" y="686.5"/>
      <point x="238.8075" y="686.5" type="curve" smooth="yes"/>
      <point x="283.56728723401" y="686.5"/>
      <point x="312.300562913295" y="661.3772421338325"/>
      <point x="330.0825" y="631.7" type="curve"/>
      <point x="332.3075" y="652.0"/>
      <point x="323.0425" y="677.3"/>
      <point x="302.885" y="679.2" type="curve"/>
      <point x="302.885" y="568.9" type="line"/>
      <point x="373.6325" y="568.9" type="line"/>
      <point x="373.6325" y="662.9" type="line"/>
      <point x="351.64825779526" y="689.271786306585"/>
      <point x="303.616626984185" y="720.0"/>
      <point x="235.345" y="720.0" type="curve" smooth="yes"/>
      <point x="129.6086632652775" y="720.0"/>
      <point x="59.2425" y="638.646346153795"/>
      <point x="59.2425" y="520.45" type="curve" smooth="yes"/>
      <point x="59.2425" y="399.14058962262"/>
      <point x="123.6425" y="340.0825235849675"/>
      <point x="123.6425" y="208.35" type="curve" smooth="yes"/>
      <point x="123.6425" y="109.35"/>
      <point x="100.7025" y="59.9"/>
      <point x="19.8125" y="26.65" type="curve"/>
    </contour>
    <contour>
      <point x="287.095" y="-10.0" type="curve" smooth="yes"/>
      <point x="349.86854304641247" y="-10.0"/>
      <point x="386.414219093865" y="76.144763335216"/>
      <point x="399.455" y="178.5" type="curve"/>
      <point x="371.59749999999997" y="189.7" type="line"/>
      <point x="358.395439079545" y="107.78993785897"/>
      <point x="332.89398305089503" y="82.9"/>
      <point x="289.4275" y="82.9" type="curve" smooth="yes"/>
      <point x="245.30999999995748" y="82.9"/>
      <point x="209.9184255476975" y="102.28531672759826"/>
      <point x="159.055" y="165.85" type="curve"/>
      <point x="150.53" y="160.6"/>
      <point x="141.5325" y="148.55"/>
      <point x="140.9825" y="139.7" type="curve"/>
      <point x="212.32928293807498" y="51.6129558408805"/>
      <point x="229.43625000002498" y="-10.0"/>
    </contour>
  </outline>
</glyph>
<glyph name="zero.lintab" format="2">
  <advance width="400"/>
  <outline>
    <contour>
      <point x="200" y="-10" type="curve" smooth="yes"/>
      <point x="301" y="-10"/>
      <point x="372" y="109"/>
      <point x="372" y="355" type="curve" smooth="yes"/>
      <point x="372" y="599"/>
      <point x="301" y="720"/>
      <point x="200" y="720" type="curve" smooth="yes"/>
      <point x="99" y="720"/>
      <point x="28" y="599"/>
      <point x="28" y="355" type="curve" smooth="yes"/>
      <point x="28" y="109"/>
      <point x="99" y="-10"/>
    </contour>
    <contour>
      <point x="200" y="23" type="curve" smooth="yes"/>
      <point x="136" y="23"/>
      <point x="110" y="121"/>
      <point x="110" y="355" type="curve" smooth="yes"/>
      <point x="110" y="587"/>
      <point x="136" y="687"/>
      <point x="200" y="687" type="curve" smooth="yes"/>
      <point x="263" y="687"/>
      <point x="290" y="587"/>
      <point x="290" y="355" type="curve" smooth="yes"/>
      <point x="290" y="121"/>
      <point x="263" y="23"/>
    </contour>
  </outline>
</glyph>
<glyph name="zero.oldprop" format="2">
  <advance width="393"/>
  <outline>
    <contour>
      <point x="197" y="-10.0" type="curve" smooth="yes"/>
      <point x="298" y="-10.0"/>
      <point x="372" y="83.0"/>
      <point x="372" y="274.0" type="curve" smooth="yes"/>
      <point x="372" y="465.0"/>
      <point x="298" y="558.0"/>
      <point x="197" y="558.0" type="curve" smooth="yes"/>
      <point x="95" y="558.0"/>
      <point x="21" y="465.0"/>
      <point x="21" y="274.0" type="curve" smooth="yes"/>
      <point x="21" y="83.0"/>
      <point x="95" y="-10.0"/>
    </contour>
    <contour>
      <point x="197" y="23.0" type="curve" smooth="yes"/>
      <point x="132" y="23.0"/>
      <point x="103" y="93.0"/>
      <point x="103" y="274.0" type="curve" smooth="yes"/>
      <point x="103" y="455.0"/>
      <point x="132" y="525.0"/>
      <point x="197" y="525.0" type="curve" smooth="yes"/>
      <point x="261" y="525.0"/>
      <point x="290" y="455.0"/>
      <point x="290" y="274.0" type="curve" smooth="yes"/>
      <point x="290" y="93.0"/>
      <point x="261" y="23.0"/>
    </contour>
  </outline>
</glyph>
<glyph name="zero.oldtab" format="2">
  <advance width="400"/>
  <outline>
    <contour>
      <point x="200" y="-10" type="curve" smooth="yes"/>
      <point x="302" y="-10"/>
      <point x="377" y="93"/>
      <point x="377" y="305" type="curve" smooth="yes"/>
      <point x="377" y="516"/>
      <point x="302" y="619"/>
      <point x="200" y="619" type="curve" smooth="yes"/>
      <point x="98" y="619"/>
      <point x="23" y="516"/>
      <point x="23" y="305" type="curve" smooth="yes"/>
      <point x="23" y="93"/>
      <point x="98" y="-10"/>
    </contour>
    <contour>
      <point x="200" y="20" type="curve" smooth="yes"/>
      <point x="135" y="20"/>
      <point x="105" y="104"/>
      <point x="105" y="305" type="curve" smooth="yes"/>
      <point x="105" y="505"/>
      <point x="135" y="589"/>
      <point x="200" y="589" type="curve" smooth="yes"/>
      <point x="265" y="589"/>
      <point x="295" y="505"/>
      <point x="295" y="305" type="curve" smooth="yes"/>
      <point x="295" y="104"/>
      <point x="265" y="20"/>
    </contour>
  </outline>
</glyph>
